<svg width="271" height="196" viewBox="0 0 271 196" fill="none" xmlns="http://www.w3.org/2000/svg">
<path d="M24.7527 71.8077C24.7527 66.7945 27.3648 61.7435 32.6847 56.8697C38.0062 51.9943 45.845 47.4889 55.7427 43.6536C75.5217 35.9892 103.016 31.1952 133.511 31.1952C164.005 31.1952 191.499 35.9892 211.278 43.6536C221.176 47.489 229.015 51.9943 234.336 56.8697C239.656 61.7435 242.268 66.7945 242.268 71.8077C242.268 76.8209 239.656 81.8718 234.336 86.7456C229.015 91.621 221.176 96.1264 211.278 99.9617C191.499 107.626 164.005 112.42 133.51 112.42C103.016 112.42 75.5217 107.626 55.7426 99.9617C45.845 96.1264 38.0062 91.621 32.6847 86.7456C27.3648 81.8718 24.7527 76.8208 24.7527 71.8077Z" stroke="url(#paint0_linear_1_378)" stroke-width="5"/>
<g opacity="0.8">
<path d="M17.9049 84.4234C17.9049 79.4741 20.6569 74.4353 26.3559 69.5382C32.0467 64.6481 40.4278 60.131 51.0016 56.2879C72.1288 48.6091 101.481 43.8109 134.024 43.8109C166.567 43.8109 195.919 48.6091 217.046 56.2879C227.62 60.131 236.001 64.6481 241.692 69.5382C247.391 74.4353 250.143 79.4741 250.143 84.4234C250.143 89.3727 247.391 94.4114 241.692 99.3086C236.001 104.199 227.62 108.716 217.046 112.559C195.919 120.238 166.567 125.036 134.024 125.036C101.481 125.036 72.1288 120.238 51.0016 112.559C40.4278 108.716 32.0467 104.199 26.3559 99.3086C20.6569 94.4114 17.9049 89.3727 17.9049 84.4234Z" stroke="url(#paint1_linear_1_378)" stroke-width="5"/>
</g>
<g opacity="0.6">
<path d="M16.4982 97.0393C16.4982 92.1065 19.2863 87.0705 25.085 82.167C30.8725 77.2731 39.3952 72.7531 50.1453 68.9082C71.624 61.226 101.461 56.4268 134.538 56.4268C167.614 56.4268 197.451 61.2261 218.93 68.9082C229.68 72.7531 238.203 77.2731 243.99 82.167C249.789 87.0705 252.577 92.1065 252.577 97.0394C252.577 101.972 249.789 107.008 243.99 111.912C238.203 116.806 229.68 121.326 218.93 125.171C197.451 132.853 167.614 137.652 134.538 137.652C101.461 137.652 71.624 132.853 50.1453 125.171C39.3951 121.326 30.8725 116.806 25.085 111.912C19.2863 107.008 16.4982 101.972 16.4982 97.0393Z" stroke="url(#paint2_linear_1_378)" stroke-width="5"/>
</g>
<g opacity="0.4">
<path d="M18.9323 109.655C18.9323 104.706 21.6843 99.6672 27.3833 94.7701C33.0741 89.88 41.4551 85.3629 52.029 81.5198C73.1561 73.8411 102.509 69.0428 135.051 69.0428C167.594 69.0428 196.947 73.8411 218.074 81.5198C228.648 85.3629 237.029 89.88 242.72 94.7701C248.419 99.6673 251.171 104.706 251.171 109.655C251.171 114.605 248.419 119.643 242.72 124.541C237.029 129.431 228.648 133.948 218.074 137.791C196.947 145.47 167.594 150.268 135.051 150.268C102.509 150.268 73.1561 145.47 52.029 137.791C41.4551 133.948 33.0741 129.431 27.3833 124.541C21.6843 119.643 18.9323 114.605 18.9323 109.655Z" stroke="url(#paint3_linear_1_378)" stroke-width="5"/>
</g>
<g opacity="0.2">
<g filter="url(#filter0_d_1_378)">
<path d="M24.7527 122.271C24.7527 117.276 27.4041 112.229 32.8293 107.349C38.2537 102.469 46.2437 97.9604 56.3302 94.1227C76.4856 86.4541 104.499 81.6588 135.565 81.6588C166.632 81.6588 194.645 86.4541 214.8 94.1227C224.887 97.9604 232.877 102.469 238.301 107.349C243.726 112.229 246.378 117.276 246.378 122.271C246.378 127.267 243.726 132.314 238.301 137.194C232.877 142.073 224.887 146.582 214.8 150.42C194.645 158.088 166.632 162.884 135.565 162.884C104.499 162.884 76.4856 158.088 56.3302 150.42C46.2437 146.582 38.2537 142.073 32.8293 137.194C27.4041 132.314 24.7527 127.267 24.7527 122.271Z" stroke="url(#paint4_linear_1_378)" stroke-width="5" shape-rendering="crispEdges"/>
</g>
</g>
<defs>
<filter id="filter0_d_1_378" x="0.852686" y="60.7587" width="269.425" height="129.025" filterUnits="userSpaceOnUse" color-interpolation-filters="sRGB">
<feFlood flood-opacity="0" result="BackgroundImageFix"/>
<feColorMatrix in="SourceAlpha" type="matrix" values="0 0 0 0 0 0 0 0 0 0 0 0 0 0 0 0 0 0 127 0" result="hardAlpha"/>
<feMorphology radius="1" operator="dilate" in="SourceAlpha" result="effect1_dropShadow_1_378"/>
<feOffset dy="3"/>
<feGaussianBlur stdDeviation="10.2"/>
<feComposite in2="hardAlpha" operator="out"/>
<feColorMatrix type="matrix" values="0 0 0 0 1 0 0 0 0 1 0 0 0 0 1 0 0 0 0.18 0"/>
<feBlend mode="normal" in2="BackgroundImageFix" result="effect1_dropShadow_1_378"/>
<feBlend mode="normal" in="SourceGraphic" in2="effect1_dropShadow_1_378" result="shape"/>
</filter>
<linearGradient id="paint0_linear_1_378" x1="133.51" y1="114.92" x2="133.51" y2="28.6952" gradientUnits="userSpaceOnUse">
<stop stop-color="white"/>
<stop offset="1" stop-color="#7A7A7A"/>
</linearGradient>
<linearGradient id="paint1_linear_1_378" x1="134.024" y1="127.536" x2="134.024" y2="41.3109" gradientUnits="userSpaceOnUse">
<stop stop-color="white"/>
<stop offset="1" stop-color="#7A7A7A"/>
</linearGradient>
<linearGradient id="paint2_linear_1_378" x1="134.538" y1="140.152" x2="134.538" y2="53.9268" gradientUnits="userSpaceOnUse">
<stop stop-color="white"/>
<stop offset="1" stop-color="#7A7A7A"/>
</linearGradient>
<linearGradient id="paint3_linear_1_378" x1="135.051" y1="152.768" x2="135.051" y2="66.5428" gradientUnits="userSpaceOnUse">
<stop stop-color="white"/>
<stop offset="1" stop-color="#7A7A7A"/>
</linearGradient>
<linearGradient id="paint4_linear_1_378" x1="135.565" y1="165.384" x2="135.565" y2="79.1588" gradientUnits="userSpaceOnUse">
<stop stop-color="white"/>
<stop offset="1" stop-color="#7A7A7A"/>
</linearGradient>
</defs>
</svg>
