<svg width="209" height="28" viewBox="0 0 209 28" fill="none" xmlns="http://www.w3.org/2000/svg">
<path d="M0 12.6431C0 3.61287 7.20225 0.17627 18.5723 0.17627C29.9423 0.17627 37.1446 3.61287 37.1446 12.6431V14.5076C37.1446 23.5379 29.9423 26.9745 18.5723 26.9745C7.20225 26.9745 0 23.5379 0 14.5076V12.6431ZM31.551 12.6431C31.551 6.53765 25.1165 5.25806 18.5723 5.25806C12.0281 5.25806 5.59363 6.53765 5.59363 12.6431V14.5076C5.59363 20.6131 12.0281 21.8927 18.5723 21.8927C25.1165 21.8927 31.551 20.6131 31.551 14.5076V12.6431Z" fill="black"/>
<path d="M41.7223 26.4992V0.907462H67.4237C73.0173 0.907462 76.4539 3.72256 76.4539 8.43875C76.4539 13.5205 73.0173 15.3485 67.4237 15.8238L60.6602 16.4453L82.5228 26.4992H70.97L51.0084 17.2862L47.4987 17.6152V26.4992H41.7223ZM67.7893 6.09893H47.4987V12.7528L67.7893 10.9248C69.5441 10.7786 70.7506 10.0839 70.7506 8.43875C70.7506 6.75701 69.5441 6.09893 67.7893 6.09893Z" fill="black"/>
<path d="M83.8158 26.4992V0.907462H102.534C107.506 0.907462 110.98 3.97847 110.943 7.85379C110.943 9.79146 109.919 11.8022 108.64 12.6431C111.967 13.2646 114.233 15.3485 114.233 18.9679C114.233 23.026 111.674 26.4992 106.008 26.4992H83.8158ZM102.79 6.09893H89.5922V11.071H102.79C104.618 11.071 105.605 9.93769 105.605 8.54843C105.605 7.1226 104.618 6.09893 102.79 6.09893ZM105.861 15.9335H89.5922V21.3077H105.861C107.506 21.3077 108.823 20.2841 108.823 18.6023C108.823 16.884 107.506 15.9335 105.861 15.9335Z" fill="black"/>
<path d="M117.614 6.09893V0.907462H143.278V6.09893H133.334V21.3077H143.278V26.4992H117.614V21.3077H127.558V6.09893H117.614Z" fill="black"/>
<path d="M146.761 6.09893V0.907462H180.469V6.09893H166.503V26.4992H160.727V6.09893H146.761Z" fill="black"/>
<path d="M184.765 16.2203H186.309L190.233 25.9744H188.676L187.705 23.458H183.369L182.398 25.9744H180.841L184.765 16.2203ZM187.194 22.1624L185.562 17.9269H185.512L183.88 22.1624H187.194ZM191.661 16.2203H195.547C196.652 16.2203 197.499 16.4736 198.089 16.9802C198.678 17.4868 198.973 18.2134 198.973 19.1602C198.973 19.8163 198.84 20.3769 198.575 20.8419C198.317 21.2987 197.931 21.6475 197.416 21.8884C196.901 22.1292 196.278 22.2496 195.547 22.2496H193.106V25.9744H191.661V16.2203ZM193.106 20.8669H195.547C195.946 20.8669 196.287 20.8004 196.569 20.6675C196.851 20.5347 197.063 20.3395 197.204 20.082C197.354 19.8246 197.428 19.5173 197.428 19.1602C197.428 18.6619 197.267 18.2799 196.943 18.0141C196.619 17.7401 196.154 17.603 195.547 17.603H193.106V20.8669ZM200.298 16.2203H204.185C205.289 16.2203 206.136 16.4736 206.726 16.9802C207.316 17.4868 207.611 18.2134 207.611 19.1602C207.611 19.8163 207.478 20.3769 207.212 20.8419C206.955 21.2987 206.568 21.6475 206.053 21.8884C205.539 22.1292 204.916 22.2496 204.185 22.2496H201.743V25.9744H200.298V16.2203ZM201.743 20.8669H204.185C204.583 20.8669 204.924 20.8004 205.206 20.6675C205.489 20.5347 205.7 20.3395 205.842 20.082C205.991 19.8246 206.066 19.5173 206.066 19.1602C206.066 18.6619 205.904 18.2799 205.58 18.0141C205.256 17.7401 204.791 17.603 204.185 17.603H201.743V20.8669Z" fill="black"/>
</svg>
