<svg width="270" height="162" viewBox="0 0 270 162" fill="none" xmlns="http://www.w3.org/2000/svg">
<path d="M24.4408 43.189C24.4408 38.1758 27.0529 33.1248 32.3728 28.251C37.6943 23.3757 45.5332 18.8703 55.4308 15.035C75.2098 7.37055 102.704 2.5765 133.199 2.5765C163.693 2.5765 191.187 7.37056 210.966 15.035C220.864 18.8703 228.703 23.3757 234.024 28.251C239.344 33.1248 241.956 38.1758 241.956 43.189C241.956 48.2022 239.344 53.2532 234.024 58.127C228.703 63.0023 220.864 67.5077 210.966 71.343C191.187 79.0075 163.693 83.8015 133.199 83.8015C102.704 83.8015 75.2098 79.0075 55.4308 71.343C45.5331 67.5077 37.6943 63.0023 32.3728 58.127C27.0529 53.2532 24.4408 48.2022 24.4408 43.189Z" stroke="url(#paint0_linear_2200_368)" stroke-width="5"/>
<g opacity="0.8">
<path d="M17.593 55.8047C17.593 50.8554 20.345 45.8167 26.044 40.9195C31.7348 36.0294 40.1159 31.5123 50.6898 27.6692C71.8169 19.9905 101.169 15.1922 133.712 15.1922C166.255 15.1922 195.607 19.9905 216.735 27.6692C227.308 31.5123 235.689 36.0294 241.38 40.9195C247.079 45.8167 249.831 50.8554 249.831 55.8047C249.831 60.7541 247.079 65.7928 241.38 70.6899C235.689 75.5801 227.308 80.0971 216.735 83.9403C195.607 91.619 166.255 96.4172 133.712 96.4172C101.169 96.4172 71.8169 91.619 50.6897 83.9402C40.1159 80.0971 31.7348 75.58 26.044 70.6899C20.345 65.7928 17.593 60.754 17.593 55.8047Z" stroke="url(#paint1_linear_2200_368)" stroke-width="5"/>
</g>
<g opacity="0.6">
<path d="M16.1863 68.4207C16.1863 63.4879 18.9744 58.4518 24.7731 53.5483C30.5606 48.6544 39.0833 44.1344 49.8334 40.2895C71.3121 32.6074 101.149 27.8082 134.226 27.8082C167.303 27.8082 197.14 32.6074 218.618 40.2895C229.368 44.1345 237.891 48.6544 243.679 53.5483C249.477 58.4518 252.265 63.4879 252.265 68.4207C252.265 73.3535 249.477 78.3896 243.679 83.2931C237.891 88.187 229.368 92.7069 218.618 96.5519C197.14 104.234 167.303 109.033 134.226 109.033C101.149 109.033 71.3121 104.234 49.8334 96.5519C39.0833 92.7069 30.5606 88.187 24.7731 83.293C18.9744 78.3896 16.1863 73.3535 16.1863 68.4207Z" stroke="url(#paint2_linear_2200_368)" stroke-width="5"/>
</g>
<g opacity="0.4">
<path d="M18.6204 81.0367C18.6204 76.0873 21.3724 71.0486 27.0714 66.1514C32.7622 61.2613 41.1432 56.7442 51.7171 52.9011C72.8442 45.2224 102.197 40.4242 134.74 40.4242C167.282 40.4242 196.635 45.2224 217.762 52.9011C228.336 56.7443 236.717 61.2613 242.408 66.1515C248.107 71.0486 250.859 76.0873 250.859 81.0367C250.859 85.986 248.107 91.0247 242.408 95.9219C236.717 100.812 228.336 105.329 217.762 109.172C196.635 116.851 167.282 121.649 134.74 121.649C102.197 121.649 72.8442 116.851 51.7171 109.172C41.1432 105.329 32.7622 100.812 27.0714 95.9219C21.3724 91.0247 18.6204 85.986 18.6204 81.0367Z" stroke="url(#paint3_linear_2200_368)" stroke-width="5"/>
</g>
<g opacity="0.2">
<g filter="url(#filter0_d_2200_368)">
<path d="M24.4408 93.6526C24.4408 88.6573 27.0922 83.6101 32.5174 78.7299C37.9418 73.8505 45.9318 69.3417 56.0183 65.5041C76.1737 57.8354 104.187 53.0401 135.253 53.0401C166.32 53.0401 194.333 57.8354 214.488 65.5041C224.575 69.3417 232.565 73.8505 237.989 78.73C243.414 83.6101 246.066 88.6574 246.066 93.6526C246.066 98.6479 243.414 103.695 237.989 108.575C232.565 113.455 224.575 117.964 214.488 121.801C194.333 129.47 166.32 134.265 135.253 134.265C104.187 134.265 76.1737 129.47 56.0183 121.801C45.9318 117.964 37.9418 113.455 32.5174 108.575C27.0922 103.695 24.4408 98.6479 24.4408 93.6526Z" stroke="url(#paint4_linear_2200_368)" stroke-width="5" shape-rendering="crispEdges"/>
</g>
</g>
<defs>
<filter id="filter0_d_2200_368" x="0.540796" y="32.14" width="269.425" height="129.025" filterUnits="userSpaceOnUse" color-interpolation-filters="sRGB">
<feFlood flood-opacity="0" result="BackgroundImageFix"/>
<feColorMatrix in="SourceAlpha" type="matrix" values="0 0 0 0 0 0 0 0 0 0 0 0 0 0 0 0 0 0 127 0" result="hardAlpha"/>
<feMorphology radius="1" operator="dilate" in="SourceAlpha" result="effect1_dropShadow_2200_368"/>
<feOffset dy="3"/>
<feGaussianBlur stdDeviation="10.2"/>
<feComposite in2="hardAlpha" operator="out"/>
<feColorMatrix type="matrix" values="0 0 0 0 1 0 0 0 0 1 0 0 0 0 1 0 0 0 0.18 0"/>
<feBlend mode="normal" in2="BackgroundImageFix" result="effect1_dropShadow_2200_368"/>
<feBlend mode="normal" in="SourceGraphic" in2="effect1_dropShadow_2200_368" result="shape"/>
</filter>
<linearGradient id="paint0_linear_2200_368" x1="133.199" y1="86.3015" x2="133.199" y2="0.0765013" gradientUnits="userSpaceOnUse">
<stop stop-color="white"/>
<stop offset="1" stop-color="#7A7A7A"/>
</linearGradient>
<linearGradient id="paint1_linear_2200_368" x1="133.712" y1="98.9172" x2="133.712" y2="12.6922" gradientUnits="userSpaceOnUse">
<stop stop-color="white"/>
<stop offset="1" stop-color="#7A7A7A"/>
</linearGradient>
<linearGradient id="paint2_linear_2200_368" x1="134.226" y1="111.533" x2="134.226" y2="25.3082" gradientUnits="userSpaceOnUse">
<stop stop-color="white"/>
<stop offset="1" stop-color="#7A7A7A"/>
</linearGradient>
<linearGradient id="paint3_linear_2200_368" x1="134.74" y1="124.149" x2="134.74" y2="37.9242" gradientUnits="userSpaceOnUse">
<stop stop-color="white"/>
<stop offset="1" stop-color="#7A7A7A"/>
</linearGradient>
<linearGradient id="paint4_linear_2200_368" x1="135.253" y1="136.765" x2="135.253" y2="50.5401" gradientUnits="userSpaceOnUse">
<stop stop-color="white"/>
<stop offset="1" stop-color="#7A7A7A"/>
</linearGradient>
</defs>
</svg>
