<svg width="206" height="30" viewBox="0 0 206 30" fill="none" xmlns="http://www.w3.org/2000/svg">
<g clip-path="url(#clip0_2120_836)">
<path d="M70.7118 7.46287V11.1505H69.4652V2.13568H72.7463C74.4128 2.13568 75.5303 3.2936 75.5303 4.80602C75.5303 6.31844 74.4109 7.46287 72.7463 7.46287H70.7118ZM72.517 6.34349C73.5979 6.34349 74.2587 5.74622 74.2587 4.81758C74.2587 3.88893 73.5979 3.25314 72.517 3.25314H70.7118V6.34349H72.517Z" fill="white"/>
<path d="M82.3199 8.08502C82.3199 9.95387 81.0233 11.3411 79.191 11.3411C77.3588 11.3411 76.0641 9.9558 76.0641 8.08502C76.0641 6.21424 77.3607 4.84247 79.191 4.84247C81.0214 4.84247 82.3199 6.22773 82.3199 8.08502ZM81.1004 8.08502C81.1004 6.67279 80.2102 5.90983 79.193 5.90983C78.1757 5.90983 77.2856 6.67279 77.2856 8.08502C77.2856 9.49726 78.1757 10.2718 79.193 10.2718C80.2102 10.2718 81.1004 9.50882 81.1004 8.08502Z" fill="white"/>
<path d="M88.5777 5.03479L90.1671 9.63756L91.5158 5.03479H92.7739L90.7895 11.15H89.5564L87.9284 6.49519L86.3389 11.15H85.0808L83.0713 5.03479H84.3814L85.7551 9.63756L87.3446 5.03479H88.5777Z" fill="white"/>
<path d="M99.3592 9.40866C99.0162 10.4895 98.0375 11.3411 96.6118 11.3411C94.9722 11.3411 93.5349 10.1466 93.5349 8.07349C93.5349 6.15262 94.9202 4.84442 96.4596 4.84442C98.3419 4.84442 99.3977 6.14106 99.3977 8.04844C99.3977 8.20065 99.3842 8.35285 99.3727 8.42992H94.7699C94.7949 9.52426 95.5829 10.2872 96.6137 10.2872C97.6445 10.2872 98.1011 9.74004 98.3303 9.05415L99.3611 9.41058L99.3592 9.40866ZM98.1512 7.46274C98.1261 6.58611 97.5539 5.8983 96.4731 5.8983C95.4693 5.8983 94.8585 6.67474 94.8065 7.46274H98.1512Z" fill="white"/>
<path d="M104.293 6.24332C104.116 6.21827 103.937 6.20478 103.771 6.20478C102.767 6.20478 102.093 6.73846 102.093 8.08712V11.1524H100.898V5.03723H102.068V6.1046C102.513 5.16439 103.276 4.93512 103.898 4.93512C104.064 4.93512 104.229 4.96017 104.293 4.97365V6.24524V6.24332Z" fill="white"/>
<path d="M110.817 9.40866C110.474 10.4895 109.495 11.3411 108.069 11.3411C106.43 11.3411 104.992 10.1466 104.992 8.07349C104.992 6.15262 106.378 4.84442 107.917 4.84442C109.799 4.84442 110.855 6.14106 110.855 8.04844C110.855 8.20065 110.842 8.35285 110.83 8.42992H106.227C106.252 9.52426 107.04 10.2872 108.071 10.2872C109.102 10.2872 109.559 9.74004 109.788 9.05415L110.819 9.41058L110.817 9.40866ZM109.609 7.46274C109.584 6.58611 109.011 5.8983 107.931 5.8983C106.927 5.8983 106.316 6.67474 106.264 7.46274H109.609Z" fill="white"/>
<path d="M116.755 10.2217C116.462 10.8074 115.814 11.3161 114.861 11.3161C113.067 11.3161 111.961 9.89226 111.961 8.0735C111.961 6.25474 113.131 4.86948 114.861 4.86948C115.942 4.86948 116.527 5.40316 116.73 5.90024V1.94482H117.913V10.0194C117.913 10.6051 117.963 11.0502 117.976 11.1504H116.818C116.793 11.0097 116.755 10.6918 116.755 10.3238V10.2217ZM114.974 10.2602C116.069 10.2602 116.741 9.30656 116.741 8.04845C116.741 6.79035 116.08 5.92528 114.986 5.92528C113.892 5.92528 113.181 6.8154 113.181 8.0735C113.181 9.3316 113.83 10.2602 114.974 10.2602Z" fill="white"/>
<path d="M123.063 11.1504V1.94482H124.246V5.90024C124.538 5.35307 125.249 4.85792 126.267 4.85792C128.124 4.85792 129.078 6.28172 129.078 8.06194C129.078 9.84217 128.047 11.318 126.23 11.318C125.326 11.318 124.627 10.923 124.246 10.2622V11.1523H123.063V11.1504ZM126.051 5.9118C124.995 5.9118 124.232 6.73833 124.232 8.06001C124.232 9.3817 124.995 10.2468 126.051 10.2468C127.107 10.2468 127.856 9.3817 127.856 8.06001C127.856 6.73833 127.157 5.9118 126.051 5.9118Z" fill="white"/>
<path d="M130.767 13.7066L132.293 10.4776L129.661 5.03479H131.035L132.942 9.25608L134.773 5.03479H136.058L132.077 13.7066H130.767Z" fill="white"/>
<path d="M50.2563 24.7586C46.0774 24.7586 41.6673 22.0266 39.5018 20.046C37.1339 17.8785 30.6295 10.8231 30.6006 10.7903C26.3331 6.02958 20.5975 0.746704 14.8753 0.746704C7.98175 0.746704 1.97252 5.51902 0.408081 11.8423C0.527533 11.4261 2.71814 5.63269 10.943 5.63269C15.1219 5.63269 19.532 8.36468 21.6976 10.3453C24.0654 12.5128 30.5698 19.5682 30.5987 19.6009C34.8643 24.3617 40.5999 29.6445 46.324 29.6445C53.2157 29.6445 59.2268 24.8722 60.7912 18.549C60.6718 18.9651 58.4812 24.7586 50.2563 24.7586Z" fill="#29A3DA"/>
<path d="M30.5988 19.6026C30.5834 19.5853 28.7107 17.5546 26.6107 15.337C25.4759 16.6837 23.8401 18.5198 21.9597 20.1691C18.4551 23.2401 16.1778 23.8856 14.8754 23.8856C9.96054 23.8856 5.95118 19.9879 5.95118 15.1964C5.95118 10.4048 9.95669 6.53607 14.8754 6.50717C15.0546 6.50717 15.2704 6.52451 15.5324 6.57268C14.0547 6.00624 12.4845 5.6344 10.9451 5.6344C2.72019 5.6344 0.529585 11.424 0.408206 11.8421C0.142328 12.9191 -0.000244141 14.0423 -0.000244141 15.1964C-0.000244141 23.165 6.57156 29.6462 14.7675 29.6462C18.1854 29.6462 22.0117 27.8949 25.9537 24.4404C27.8167 22.8066 29.4332 21.0611 30.647 19.6566C30.6316 19.6392 30.6162 19.6219 30.6008 19.6045L30.5988 19.6026Z" fill="url(#paint0_linear_2120_836)"/>
<path d="M30.5991 10.7903C30.6145 10.8077 32.4872 12.8384 34.5872 15.0559C35.722 13.7092 37.3578 11.8731 39.2382 10.2239C42.7427 7.15282 45.02 6.50739 46.3225 6.50739C51.2374 6.50739 55.2467 10.405 55.2467 15.1966C55.2467 19.9612 51.2412 23.8569 46.3225 23.8858C46.1433 23.8858 45.9275 23.8684 45.6655 23.8203C47.1432 24.3867 48.7134 24.7586 50.2528 24.7586C58.4758 24.7586 60.6664 18.969 60.7878 18.5509C61.0536 17.4739 61.1962 16.3506 61.1962 15.1966C61.2001 7.22796 54.5204 0.746704 46.3244 0.746704C42.9065 0.746704 39.1861 2.49803 35.2442 5.95251C33.3812 7.58631 31.7647 9.33186 30.5509 10.7364C30.5663 10.7537 30.5817 10.7711 30.5971 10.7884L30.5991 10.7903Z" fill="url(#paint1_linear_2120_836)"/>
<path d="M69.3073 25.9719V17.1113H71.6944V25.9719H69.3073Z" fill="white"/>
<path d="M79.0559 25.9719L75.9809 20.7103V25.9719H73.6689V17.1113H76.3682L79.131 21.9221V17.1113H81.4565V25.9719H79.0578H79.0559Z" fill="white"/>
<path d="M87.6045 19.3231V25.9719H85.2559V19.3231H82.7069V17.1113H90.1669V19.3231H87.6045Z" fill="white"/>
<path d="M91.4156 25.9719V17.1113H97.0896V19.1362H93.7411V20.5349H96.791V22.4847H93.7411V23.9085H97.1147V25.97H91.4156V25.9719Z" fill="white"/>
<path d="M98.7753 25.9719V17.1113H102.511C104.311 17.1113 105.486 18.3116 105.486 19.9608C105.486 21.1611 104.823 22.0473 103.848 22.4346L105.522 25.9719H102.985L101.586 22.7602H101.099V25.9719H98.7753ZM102.076 20.9607C102.775 20.9607 103.137 20.56 103.137 19.9993C103.137 19.4387 102.775 19.0495 102.076 19.0495H101.101V20.9607H102.076Z" fill="white"/>
<path d="M112.399 25.9719L109.324 20.7103V25.9719H107.012V17.1113H109.711L112.474 21.9221V17.1113H114.797V25.9719H112.399Z" fill="white"/>
<path d="M116.772 25.9719V17.1113H122.446V19.1362H119.098V20.5349H122.147V22.4847H119.098V23.9085H122.471V25.97H116.772V25.9719Z" fill="white"/>
<path d="M128.698 19.3231V25.9719H126.35V19.3231H123.801V17.1113H131.261V19.3231H128.698Z" fill="white"/>
<path d="M136.983 21.5483C136.983 23.0222 138.033 23.8719 139.108 23.8719C140.333 23.8719 140.857 23.1089 141.044 22.4847L143.244 23.1224C142.894 24.4345 141.72 26.1588 139.094 26.1588C136.632 26.1588 134.557 24.3709 134.557 21.5599C134.557 18.7489 136.669 16.9244 139.069 16.9244C141.618 16.9244 142.78 18.4734 143.144 19.7989L140.982 20.5368C140.821 19.9492 140.345 19.1747 139.096 19.1747C138.096 19.1747 136.985 19.9377 136.985 21.5483H136.983Z" fill="white"/>
<path d="M148.543 16.9244C150.98 16.9244 153.092 18.6738 153.092 21.5483C153.092 24.4229 150.98 26.1723 148.543 26.1723C146.106 26.1723 143.994 24.4229 143.994 21.5483C143.994 18.6738 146.106 16.9244 148.543 16.9244ZM148.543 23.9104C149.579 23.9104 150.68 23.1725 150.68 21.5368C150.68 19.9011 149.579 19.1882 148.543 19.1882C147.506 19.1882 146.406 19.9261 146.406 21.5368C146.406 23.1475 147.506 23.9104 148.543 23.9104Z" fill="white"/>
<path d="M162.358 25.9719V20.4848L160.422 25.9719H158.573L156.648 20.5484V25.9719H154.423V17.1113H157.534L159.521 22.5097L161.42 17.1113H164.62V25.9719H162.358Z" fill="white"/>
<path d="M168.919 22.9471V25.9719H166.595V17.1113H170.133C171.982 17.1113 173.244 18.3231 173.244 20.0359C173.244 21.7487 171.982 22.9471 170.133 22.9471H168.921H168.919ZM169.832 21.0108C170.445 21.0108 170.894 20.6486 170.894 20.0494C170.894 19.4502 170.445 19.0745 169.832 19.0745H168.932V21.0108H169.832Z" fill="white"/>
<path d="M174.454 22.7217V17.1113H176.791V22.6485C176.791 23.5232 177.242 23.9856 178.016 23.9856C178.791 23.9856 179.228 23.5232 179.228 22.6485V17.1113H181.565V22.7217C181.565 24.947 180.078 26.1704 178.016 26.1704C175.955 26.1704 174.454 24.945 174.454 22.7217Z" fill="white"/>
<path d="M187.715 19.3231V25.9719H185.367V19.3231H182.818V17.1113H190.278V19.3231H187.715Z" fill="white"/>
<path d="M191.526 25.9719V17.1113H197.2V19.1362H193.852V20.5349H196.902V22.4847H193.852V23.9085H197.225V25.97H191.526V25.9719Z" fill="white"/>
<path d="M198.965 25.9719V17.1113H202.701C204.5 17.1113 205.675 18.3116 205.675 19.9608C205.675 21.1611 205.013 22.0473 204.038 22.4346L205.712 25.9719H203.175L201.776 22.7602H201.288V25.9719H198.965ZM202.263 20.9607C202.963 20.9607 203.325 20.56 203.325 19.9993C203.325 19.4387 202.963 19.0495 202.263 19.0495H201.288V20.9607H202.263Z" fill="white"/>
</g>
<defs>
<linearGradient id="paint0_linear_2120_836" x1="22.5859" y1="27.7562" x2="2.45816" y2="6.91177" gradientUnits="userSpaceOnUse">
<stop offset="0.22" stop-color="#E51E79"/>
<stop offset="0.89" stop-color="#522780"/>
</linearGradient>
<linearGradient id="paint1_linear_2120_836" x1="38.6005" y1="2.65024" x2="58.7282" y2="23.4927" gradientUnits="userSpaceOnUse">
<stop offset="0.21" stop-color="#E95A24"/>
<stop offset="0.68" stop-color="#F3A83B"/>
</linearGradient>
<clipPath id="clip0_2120_836">
<rect width="205.714" height="28.8998" fill="white" transform="translate(0 0.746887)"/>
</clipPath>
</defs>
</svg>
