<svg viewBox="0 0 108 36" fill="none" xmlns="http://www.w3.org/2000/svg" draggable="false" height="26px">
    <g clip-path="url(#clip0_28_17)">
        <g clip-path="url(#clip1_28_17)">
            <path d="M95.802 16.5819C94.905 16.5819 94.5239 16.2007 94.0306 15.7074L90.3532 12.03C89.7926 11.4694 89.4787 10.6846 89.4787 9.83257V4.60803H94.6584V10.1016C94.6584 10.8416 95.2638 11.447 96.0038 11.447H106.722V16.5819H95.802Z"
                  fill="currentColor"></path>
            <path d="M31.1344 36.045V18.1964C31.1344 17.3443 31.4484 16.5595 32.0089 15.9989L35.6863 12.3216C36.2693 11.761 37.0316 11.4471 37.8165 11.4471H49.6333V16.5819H37.6595C36.8971 16.5819 36.3141 17.1649 36.3141 17.9273V36.045H31.1344Z"
                  fill="currentColor"></path>
            <path d="M80.1732 36.0449V17.9721C80.1732 17.2994 80.4198 16.6715 80.8683 16.2455L85.3305 11.7609V36.0225H80.1732V36.0449ZM80.4871 2.29846H85.6668V4.09229C85.6668 4.74256 85.3977 5.39282 84.9493 5.8637L80.4871 10.3707V2.29846Z"
                  fill="currentColor"></path>
            <path d="M95.1965 36.045C94.6584 36.045 94.1202 35.8207 93.6942 35.4171L90.0393 31.7398C89.6805 31.381 89.4787 30.9325 89.4787 30.4841V17.7255H94.6584V30.3047L103.74 21.2234L107.327 24.7663L96.6765 35.4171C96.2728 35.8207 95.7347 36.045 95.1965 36.045Z"
                  fill="currentColor"></path>
            <path d="M6.64851 36.0449C5.84129 36.0449 5.05649 35.7086 4.51834 35.1704L0.840984 31.5155C0.280412 30.9325 -0.0335083 30.1701 -0.0335083 29.318V9.02533C-0.0335083 8.17326 0.280412 7.4333 0.840984 6.82789L4.51834 3.17295C5.05649 2.61238 5.84129 2.29846 6.64851 2.29846H14.3844V7.41088H6.49155C5.7516 7.41088 5.14618 8.0163 5.14618 8.75625V29.5871C5.14618 30.3495 5.72917 30.9325 6.49155 30.9325H20.8198C21.5822 30.9325 22.1652 30.3495 22.1652 29.5871V15.2365H27.3448V29.318C27.3448 30.1701 27.0309 30.9325 26.4479 31.5155L22.793 35.1704C22.2324 35.731 21.47 36.0449 20.6404 36.0449H6.64851Z"
                  fill="currentColor"></path>
            <path d="M24.5189 12.8822V6.42441C24.5189 5.68445 23.9135 5.07903 23.1735 5.07903H16.7381V-0.0333862H22.9941C23.8013 -0.0333862 24.5861 0.302957 25.1243 0.841106L28.8016 4.49604C29.3622 5.07903 29.6761 5.84141 29.6761 6.69348V12.8822H24.5189Z"
                  fill="#00FFCC"></path>
            <path d="M59.1853 36.0449C58.3781 36.0449 57.5933 35.731 57.0327 35.1704L53.3778 31.5155C52.7948 30.9325 52.5033 30.1925 52.5033 29.318V2.29846H57.6606V29.5871C57.6606 30.3271 58.266 30.9325 59.0059 30.9325H70.2174C70.9573 30.9325 71.5628 30.3271 71.5628 29.5871V17.2097L63.356 25.394L59.7459 21.8736L69.5223 12.0973C69.9259 11.6937 70.4865 11.447 71.0246 11.447C71.5628 11.447 72.1009 11.6937 72.5045 12.0973L76.1594 15.7522C76.5182 16.111 76.72 16.5594 76.72 17.0079V29.318C76.72 30.1701 76.4061 30.9101 75.8455 31.5155L72.1682 35.1704C71.63 35.731 70.8452 36.0449 70.038 36.0449H59.1853Z"
                  fill="currentColor"></path>
        </g>
    </g>
    <defs>
        <clipPath id="clip0_28_17">
            <rect width="107.765" height="36" fill="currentColor"></rect>
        </clipPath>
        <clipPath id="clip1_28_17">
            <rect width="107.765" height="36" fill="currentColor"></rect>
        </clipPath>
    </defs>
</svg>